<svg width="80" height="80" viewBox="0 0 80 80" fill="none" xmlns="http://www.w3.org/2000/svg">
<path fill-rule="evenodd" clip-rule="evenodd" d="M40 0C17.9086 0 0 17.9086 0 40C0 62.0914 17.9086 80 40 80C62.0914 80 80 62.0914 80 40C80 17.9086 62.0914 0 40 0ZM47.1875 44.4557C55.1562 38.4818 57.4219 36.7057 59.2188 35.2526C59.5312 35.0104 60 35.2526 60 35.6562V52.125C60 54.3047 58.2812 56 56.25 56H23.75C21.6406 56 20 54.3047 20 52.125V35.6562C20 35.2526 20.3906 35.0104 20.7031 35.2526C22.5 36.7057 24.7656 38.4818 32.7344 44.4557C33.005 44.6555 33.3074 44.8947 33.6365 45.155C35.3028 46.473 37.6514 48.3307 40 48.3307C42.3771 48.3307 44.8723 46.3174 46.5103 44.9956C46.7565 44.797 46.9833 44.614 47.1875 44.4557ZM44.7955 43.0624C43.3963 44.1772 41.4454 45.7316 40 45.6667C38.4832 45.732 36.5062 44.1595 35.1031 43.0434C34.7718 42.7799 34.4724 42.5418 34.2188 42.3568C24.6861 35.2467 23.2414 34.0481 21.258 32.4025C21.0795 32.2544 20.8967 32.1027 20.7031 31.9427C20.2344 31.6198 20 31.0547 20 30.4089V28.875C20 26.776 21.6406 25 23.75 25H56.25C58.2812 25 60 26.776 60 28.875V30.4089C60 31.0547 59.6875 31.6198 59.2188 31.9427C59.0252 32.1027 58.8424 32.2544 58.6638 32.4025C56.6805 34.0481 55.2358 35.2467 45.7031 42.3568C45.4433 42.5463 45.1357 42.7914 44.7955 43.0624Z" fill="#C4C4C4"/>
</svg>
