<svg width="179" height="48" viewBox="0 0 179 48" fill="none" xmlns="http://www.w3.org/2000/svg">
<path d="M62.8398 12.6621C61.2318 12.1999 60.0599 11.6335 59.3242 10.9629C58.5951 10.2858 58.2305 9.45247 58.2305 8.46289C58.2305 7.3431 58.6764 6.41862 59.5684 5.68945C60.4668 4.95378 61.6322 4.58594 63.0645 4.58594C64.041 4.58594 64.9102 4.77474 65.6719 5.15234C66.4401 5.52995 67.0326 6.05078 67.4492 6.71484C67.8724 7.37891 68.084 8.10482 68.084 8.89258H66.1992C66.1992 8.0332 65.9258 7.35938 65.3789 6.87109C64.832 6.3763 64.0605 6.12891 63.0645 6.12891C62.14 6.12891 61.4173 6.33398 60.8965 6.74414C60.3822 7.14779 60.125 7.71094 60.125 8.43359C60.125 9.01302 60.3691 9.50456 60.8574 9.9082C61.3522 10.3053 62.1888 10.6699 63.3672 11.002C64.5521 11.334 65.4766 11.7018 66.1406 12.1055C66.8112 12.5026 67.306 12.9681 67.625 13.502C67.9505 14.0358 68.1133 14.6641 68.1133 15.3867C68.1133 16.5391 67.6641 17.4635 66.7656 18.1602C65.8672 18.8503 64.666 19.1953 63.1621 19.1953C62.1855 19.1953 61.2741 19.0098 60.4277 18.6387C59.5814 18.2611 58.9271 17.7467 58.4648 17.0957C58.0091 16.4447 57.7812 15.7057 57.7812 14.8789H59.666C59.666 15.7383 59.9818 16.4186 60.6133 16.9199C61.2513 17.4147 62.1009 17.6621 63.1621 17.6621C64.1517 17.6621 64.9102 17.4603 65.4375 17.0566C65.9648 16.653 66.2285 16.1029 66.2285 15.4062C66.2285 14.7096 65.9844 14.1725 65.4961 13.7949C65.0078 13.4108 64.1224 13.0332 62.8398 12.6621ZM80.5352 4.78125V14.4492C80.5286 15.7904 80.1055 16.8874 79.2656 17.7402C78.4323 18.5931 77.2995 19.0716 75.8672 19.1758L75.3691 19.1953C73.8132 19.1953 72.5729 18.7754 71.6484 17.9355C70.724 17.0957 70.2552 15.9401 70.2422 14.4688V4.78125H72.0977V14.4102C72.0977 15.4388 72.3809 16.2396 72.9473 16.8125C73.5137 17.3789 74.321 17.6621 75.3691 17.6621C76.4303 17.6621 77.2409 17.3789 77.8008 16.8125C78.3672 16.2461 78.6504 15.4486 78.6504 14.4199V4.78125H80.5352ZM89.4512 4.78125H91.3359V14.8496C91.3359 16.2103 90.9258 17.2747 90.1055 18.043C89.2917 18.8112 88.2044 19.1953 86.8438 19.1953C85.431 19.1953 84.3307 18.834 83.543 18.1113C82.7552 17.3887 82.3613 16.3763 82.3613 15.0742H84.2363C84.2363 15.888 84.4577 16.5228 84.9004 16.9785C85.3496 17.4342 85.9974 17.6621 86.8438 17.6621C87.6185 17.6621 88.2435 17.418 88.7188 16.9297C89.2005 16.4414 89.4447 15.7578 89.4512 14.8789V4.78125ZM96.541 19H94.666V4.78125H96.541V19ZM109.51 6.32422H104.939V19H103.074V6.32422H98.5137V4.78125H109.51V6.32422ZM122.547 19H120.662V12.4277H113.494V19H111.619V4.78125H113.494V10.8945H120.662V4.78125H122.547V19Z" fill="#18DFEC"/>
<path d="M58.6504 43V28.7812H62.6641C63.901 28.7812 64.9948 29.0547 65.9453 29.6016C66.8958 30.1484 67.6283 30.9264 68.1426 31.9355C68.6634 32.9447 68.9271 34.1035 68.9336 35.4121V36.3203C68.9336 37.6615 68.6732 38.8366 68.1523 39.8457C67.638 40.8548 66.8991 41.6296 65.9355 42.1699C64.9785 42.7103 63.862 42.987 62.5859 43H58.6504ZM60.5254 30.3242V41.4668H62.498C63.9434 41.4668 65.0664 41.0176 65.8672 40.1191C66.6745 39.2207 67.0781 37.9414 67.0781 36.2812V35.4512C67.0781 33.8366 66.6973 32.5833 65.9355 31.6914C65.1803 30.793 64.1061 30.3372 62.7129 30.3242H60.5254ZM79.8125 36.4277H73.6504V41.4668H80.8086V43H71.7754V28.7812H80.7109V30.3242H73.6504V34.8945H79.8125V36.4277ZM87.8496 40.5098L91.9121 28.7812H93.9629L88.6895 43H87.0293L81.7656 28.7812H83.8066L87.8496 40.5098ZM102.986 39.2891H97.0293L95.6914 43H93.7578L99.1875 28.7812H100.828L106.268 43H104.344L102.986 39.2891ZM97.5957 37.7461H102.43L100.008 31.0957L97.5957 37.7461ZM119.109 43H117.225L110.066 32.043V43H108.182V28.7812H110.066L117.244 39.7871V28.7812H119.109V43ZM130.467 39.2891H124.51L123.172 43H121.238L126.668 28.7812H128.309L133.748 43H131.824L130.467 39.2891ZM125.076 37.7461H129.91L127.488 31.0957L125.076 37.7461ZM146.043 41.1348C145.561 41.8249 144.887 42.3424 144.021 42.6875C143.162 43.026 142.16 43.1953 141.014 43.1953C139.855 43.1953 138.826 42.9251 137.928 42.3848C137.029 41.8379 136.333 41.0632 135.838 40.0605C135.35 39.0579 135.099 37.8958 135.086 36.5742V35.334C135.086 33.1921 135.584 31.5319 136.58 30.3535C137.583 29.1751 138.989 28.5859 140.799 28.5859C142.283 28.5859 143.478 28.9668 144.383 29.7285C145.288 30.4837 145.841 31.5579 146.043 32.9512H144.168C143.816 31.0697 142.697 30.1289 140.809 30.1289C139.552 30.1289 138.598 30.5716 137.947 31.457C137.303 32.3359 136.977 33.612 136.971 35.2852V36.4473C136.971 38.0423 137.335 39.3118 138.064 40.2559C138.794 41.1934 139.78 41.6621 141.023 41.6621C141.727 41.6621 142.342 41.584 142.869 41.4277C143.396 41.2715 143.833 41.0078 144.178 40.6367V37.4434H140.887V35.9199H146.043V41.1348ZM157.029 39.2891H151.072L149.734 43H147.801L153.23 28.7812H154.871L160.311 43H158.387L157.029 39.2891ZM151.639 37.7461H156.473L154.051 31.0957L151.639 37.7461ZM167.439 37.248H164.1V43H162.215V28.7812H166.922C168.523 28.7812 169.754 29.1458 170.613 29.875C171.479 30.6042 171.912 31.6654 171.912 33.0586C171.912 33.944 171.671 34.7155 171.189 35.373C170.714 36.0306 170.05 36.5221 169.197 36.8477L172.537 42.8828V43H170.525L167.439 37.248ZM164.1 35.7148H166.98C167.911 35.7148 168.65 35.474 169.197 34.9922C169.751 34.5104 170.027 33.8659 170.027 33.0586C170.027 32.1797 169.764 31.5059 169.236 31.0371C168.715 30.5684 167.96 30.3307 166.971 30.3242H164.1V35.7148ZM176.561 43H174.686V28.7812H176.561V43Z" fill="#424242"/>
<circle cx="22.5" cy="23.5" r="21.75" stroke="#18DFEC" stroke-width="1.5"/>
<path d="M42.6176 15.0294C37.147 12.4706 24.7235 9.68236 18.7941 19" stroke="#18DFEC" stroke-width="1.5"/>
<path d="M5.89285 38.2046C11.8393 39.2604 24.5612 38.7382 27.877 28.2034" stroke="#18DFEC" stroke-width="1.5"/>
</svg>
