<svg width="80" height="80" viewBox="0 0 80 80" fill="none" xmlns="http://www.w3.org/2000/svg">
<path d="M40 0C17.9032 0 0 17.9032 0 40C0 62.0968 17.9032 80 40 80C62.0968 80 80 62.0968 80 40C80 17.9032 62.0968 0 40 0ZM58.5161 27.4194L52.0645 58.3871C51.5806 60.6452 50.2903 61.129 48.3548 60.1613L38.3548 52.7419L33.5161 57.4194C33.0323 57.9032 32.5484 58.3871 31.5806 58.3871L32.2258 48.2258L50.7742 31.4516C51.5806 30.8065 50.6129 30.3226 49.4839 30.9677L26.5806 45.4839L16.7419 42.4194C14.6452 41.7742 14.6452 40.1613 17.2258 39.1935L55.7742 24.3548C57.5484 23.7097 59.1613 24.8387 58.5161 27.4194Z" fill="#C4C4C4"/>
</svg>
