<svg width="72" height="73" viewBox="0 0 72 73" fill="none" xmlns="http://www.w3.org/2000/svg">
<path d="M60.8594 10.9453C54.293 4.21875 45.3242 0.375 35.7148 0.375C16.1758 0.375 0.160156 16.3906 0.160156 35.9297C0.160156 42.3359 1.92188 48.4219 4.96484 53.707L0 72.125L18.7383 67.3203C24.0234 70.043 29.7891 71.6445 35.7148 71.6445C55.4141 71.6445 71.75 55.6289 71.75 36.0898C71.75 26.4805 67.5859 17.6719 60.8594 10.9453ZM35.7148 65.5586C30.4297 65.5586 25.3047 64.1172 20.6602 61.3945L19.6992 60.7539L8.48828 63.7969L11.5312 52.9062L10.7305 51.7852C7.84766 46.9805 6.24609 41.5352 6.24609 35.9297C6.24609 19.7539 19.5391 6.46094 35.875 6.46094C43.7227 6.46094 51.0898 9.50391 56.6953 15.1094C62.3008 20.7148 65.6641 28.082 65.6641 36.0898C65.6641 52.2656 52.0508 65.5586 35.7148 65.5586ZM52.0508 43.457C51.0898 42.9766 46.7656 40.8945 45.9648 40.5742C45.1641 40.2539 44.5234 40.0938 43.8828 41.0547C43.4023 41.8555 41.6406 43.9375 41.1602 44.5781C40.5195 45.0586 40.0391 45.2188 39.2383 44.7383C33.9531 42.1758 30.5898 40.0938 27.0664 34.168C26.1055 32.5664 28.0273 32.7266 29.6289 29.3633C29.9492 28.7227 29.7891 28.2422 29.6289 27.7617C29.4688 27.2812 27.5469 22.957 26.9062 21.1953C26.1055 19.4336 25.4648 19.5938 24.8242 19.5938C24.3438 19.5938 23.7031 19.5938 23.2227 19.5938C22.582 19.5938 21.6211 19.7539 20.8203 20.7148C20.0195 21.6758 17.7773 23.7578 17.7773 28.082C17.7773 32.5664 20.8203 36.7305 21.3008 37.3711C21.7812 37.8516 27.5469 46.8203 36.5156 50.6641C42.1211 53.2266 44.3633 53.3867 47.2461 52.9062C48.8477 52.7461 52.3711 50.8242 53.1719 48.7422C53.9727 46.6602 53.9727 44.8984 53.6523 44.5781C53.4922 44.0977 52.8516 43.9375 52.0508 43.457Z" fill="#C4C4C4"/>
</svg>
